<svg width="68" height="63" viewBox="0 0 68 63" fill="none" xmlns="http://www.w3.org/2000/svg">
<circle cx="31.4232" cy="31.4232" r="31.4232" fill="url(#paint0_linear_2032_598)"/>
<path d="M15.5792 28.0942C16.3851 28.0651 17.0769 28.6417 17.1954 29.4253L17.212 29.5854V29.5884L17.7794 43.0308L17.7803 43.0337C17.8118 43.8949 17.145 44.6188 16.2823 44.6606H16.2803L9.336 44.9536L9.32721 44.9546H9.26471C8.87475 44.9546 8.49454 44.8081 8.20709 44.5435L8.20612 44.5425C7.90128 44.2602 7.72235 43.8729 7.70123 43.4644L7.70026 43.4604L7.13287 30.0093V30.0073C7.10119 29.146 7.76717 28.4222 8.62994 28.3804H8.63287L15.5762 28.0942H15.5792ZM8.76373 30.0024L9.32623 43.311L16.1407 43.0298L15.5772 29.7212L8.76373 30.0024Z" fill="white" stroke="white" stroke-width="0.887451"/>
<path d="M24.7053 28.9905C25.5047 28.9585 26.292 28.9994 27.051 29.1204C27.9641 29.2627 29.2476 29.5319 30.5247 30.0315C31.7304 30.5033 32.9624 31.1924 33.8665 32.2014L40.2258 31.9329C41.0642 31.8968 41.8755 32.195 42.4954 32.761C43.1178 33.3295 43.4779 34.1145 43.5139 34.9504C43.5499 35.797 43.2514 36.6005 42.6858 37.22C42.1173 37.8424 41.3323 38.2026 40.4963 38.2385L28.5735 38.7415L28.4592 38.7463L28.4211 38.7268C28.0566 38.6805 27.7595 38.3936 27.7083 38.0256L27.7014 37.9436C27.6848 37.4949 28.0326 37.1075 28.4895 37.0891L40.4114 36.5852L40.5598 36.5715C40.9033 36.5224 41.2184 36.3575 41.4622 36.0979C41.7356 35.7989 41.8706 35.4204 41.8528 35.0208C41.8348 34.6199 41.6622 34.2476 41.3655 33.969V33.968C41.1041 33.7292 40.7815 33.5962 40.4377 33.5784H40.2874L33.5208 33.8645L33.5198 33.8625C33.21 33.8858 32.9722 33.7117 32.844 33.5579L32.8372 33.551L32.8323 33.5432C32.1552 32.6556 31.0879 32.0182 29.9436 31.5686C28.8055 31.1214 27.6327 30.876 26.7922 30.7473H26.7893C26.3077 30.6698 25.8034 30.629 25.2893 30.6262L24.7727 30.636L17.7512 30.9309L17.7502 30.9299C17.2802 30.9564 16.9101 30.5779 16.8938 30.1399C16.8772 29.691 17.2256 29.3044 17.6829 29.2864V29.2854L24.7043 28.9915L24.7053 28.9905Z" fill="white" stroke="white" stroke-width="0.887451"/>
<path d="M50.1174 32.8049C50.3184 32.7072 50.9913 32.4377 52.0129 32.5627C53.1601 32.7032 54.6924 33.3307 56.4446 35.1399L56.5491 35.261C56.773 35.5522 56.8664 35.9189 56.8127 36.2883L56.8137 36.2893C56.759 36.7158 56.5145 37.085 56.1418 37.2942L56.1428 37.2952L40.7385 46.0305L40.7375 46.0295C39.0588 46.9861 37.1642 47.5287 35.2532 47.6165H34.7385C33.8529 47.6165 32.9655 47.5213 32.093 47.3215L32.0852 47.3196L17.512 43.7161V43.7151C17.0823 43.6106 16.8117 43.1693 16.9172 42.7346H16.9163C17.0116 42.3117 17.4429 42.0073 17.8967 42.1252H17.8977L32.4641 45.7278C33.3506 45.9248 34.2663 46.0056 35.1829 45.969L35.4934 45.9504C36.9439 45.8426 38.3761 45.4322 39.6731 44.7483L39.9495 44.5969L55.0325 36.0442C53.7133 34.7575 52.6538 34.3325 51.9426 34.217C51.5627 34.1554 51.2703 34.1805 51.0764 34.218C50.8843 34.2552 50.7827 34.3054 50.7795 34.3069L50.7698 34.3118L50.76 34.3157L41.3245 38.1721C40.9023 38.3453 40.4225 38.1332 40.261 37.7024V37.7014C40.1078 37.2984 40.2889 36.818 40.7102 36.6448L40.7112 36.6438L50.1174 32.803V32.8049Z" fill="white" stroke="white" stroke-width="0.887451"/>
<path d="M26.6602 13.5532C28.6076 12.3517 31.0644 12.6263 33.3184 14.1284C35.5736 12.6249 38.025 12.3584 39.9775 13.5522L40.1719 13.6772L40.1729 13.6782C42.1327 15.0066 42.9581 17.5434 42.2969 19.98C42.2904 20.012 42.2788 20.0484 42.2598 20.0874C41.1246 23.5176 38.2991 26.5154 33.7412 29.2544C33.6246 29.3272 33.4777 29.3822 33.3125 29.3823C33.1949 29.3823 33.0412 29.3563 32.8975 29.2642L32.8965 29.2671C28.3132 26.5141 25.4783 23.5058 24.3535 20.0454L24.3477 20.0259C23.6754 17.5689 24.4991 15.0116 26.4658 13.6782L26.6602 13.5532ZM29.3506 14.437C28.6243 14.4371 27.9566 14.6307 27.377 15.0259L27.376 15.0269C26.0311 15.9366 25.4139 17.7535 25.9131 19.5718C26.8546 22.4481 29.2423 25.0875 33.3193 27.6128C37.3884 25.0949 39.7776 22.4486 40.7266 19.564C41.2181 17.7459 40.6007 15.9366 39.2559 15.0269C37.8295 14.0631 35.8184 14.2575 33.8027 15.771L33.7969 15.7759C33.5127 15.9811 33.1196 15.9899 32.8291 15.77V15.771C31.6273 14.8696 30.4222 14.437 29.3506 14.437Z" fill="white" stroke="white" stroke-width="0.887451"/>
<defs>
<linearGradient id="paint0_linear_2032_598" x1="31.4232" y1="0" x2="31.4232" y2="62.8464" gradientUnits="userSpaceOnUse">
<stop stop-color="#02116E"/>
<stop offset="1" stop-color="#1F3A93"/>
</linearGradient>
</defs>
</svg>