<svg width="63" height="63" viewBox="0 0 63 63" fill="none" xmlns="http://www.w3.org/2000/svg">
<circle cx="31.4232" cy="31.4232" r="31.4232" fill="url(#paint0_linear_2032_665)"/>
<path d="M32.8723 22.5908C33.6722 22.0418 34.6423 21.8637 35.6398 22.1455L35.9084 22.2314C37.2332 22.712 38.3175 23.9151 38.8967 25.6768C39.5144 27.5561 39.5645 30.0844 38.7316 33.1172C38.1887 35.0941 37.4791 36.3876 36.7365 37.2969C35.9942 38.2058 35.2278 38.7189 34.6017 39.1387C34.0637 39.4991 33.7519 39.7142 33.5803 40.0205C33.4156 40.3144 33.3617 40.7335 33.4904 41.5498C34.1298 45.61 32.4097 48.0237 30.3928 48.4609H30.3918C30.229 48.496 30.0638 48.5177 29.8976 48.5264L29.7316 48.5312C28.1449 48.5312 26.4121 47.3643 25.7004 44.7061L25.6808 44.6182C25.6463 44.4128 25.6836 44.2002 25.7873 44.0176C25.9058 43.809 26.1022 43.6555 26.3332 43.5908H26.3351C26.45 43.5597 26.5697 43.5519 26.6877 43.5674C26.8056 43.5829 26.9197 43.621 27.0226 43.6807C27.1256 43.7404 27.2153 43.8203 27.2873 43.915C27.3593 44.0097 27.4125 44.1174 27.4426 44.2324H27.4416C27.9915 46.2864 29.1819 46.863 30.0129 46.6826C30.5465 46.5671 31.0871 46.135 31.4396 45.333C31.792 44.5312 31.9504 43.3681 31.7092 41.835C31.5055 40.544 31.6716 39.6763 32.0666 39.0273C32.455 38.3892 33.0484 37.9957 33.6027 37.624C34.1695 37.2443 34.7796 36.834 35.3674 36.1055C35.955 35.377 36.5304 34.3163 36.9933 32.6309C37.7697 29.8035 37.6638 27.7101 37.1857 26.2812C36.7058 24.8471 35.8588 24.0962 35.1525 23.8965C34.6558 23.7557 34.1955 23.8517 33.8068 24.1475C33.4117 24.4481 33.0766 24.9672 32.8752 25.6895C32.8438 25.8037 32.7897 25.9104 32.717 26.0039C32.644 26.0977 32.5528 26.1768 32.4494 26.2354C32.3461 26.2938 32.2323 26.3314 32.1144 26.3457C31.9965 26.3601 31.8763 26.3504 31.7619 26.3184H31.7599C31.5294 26.2513 31.3344 26.0957 31.218 25.8857C31.1016 25.6759 31.0728 25.4283 31.1379 25.1973L31.2023 24.9844C31.5382 23.9308 32.1254 23.1034 32.8723 22.5908Z" fill="white" stroke="white" stroke-width="0.483434"/>
<path d="M21.5119 27.4624C21.6309 27.4624 21.7489 27.4867 21.8586 27.5327C21.9682 27.5787 22.0682 27.6462 22.1516 27.731C23.8665 29.4765 24.8273 31.8259 24.8273 34.2729C24.8273 36.72 23.8666 39.0694 22.1516 40.8149C22.0681 40.8997 21.9682 40.9672 21.8586 41.0132C21.7489 41.0592 21.6309 41.0825 21.5119 41.0825C21.393 41.0825 21.2749 41.0591 21.1652 41.0132C21.0556 40.9672 20.9566 40.8996 20.8732 40.8149C20.7048 40.6439 20.6096 40.4134 20.6096 40.1733C20.6096 39.9334 20.7048 39.7027 20.8732 39.5317C22.2516 38.1284 23.0236 36.24 23.0236 34.2729C23.0236 32.3056 22.2509 30.4166 20.8723 29.0132C20.7043 28.8423 20.6097 28.6122 20.6096 28.3726C20.6096 28.1325 20.7048 27.902 20.8732 27.731C20.9566 27.6462 21.0556 27.5787 21.1652 27.5327C21.2749 27.4868 21.393 27.4624 21.5119 27.4624Z" fill="white" stroke="white" stroke-width="0.483434"/>
<path d="M19.644 29.3506C19.7629 29.3506 19.8809 29.3749 19.9907 29.4209C20.1003 29.4669 20.2002 29.5344 20.2836 29.6191C21.5038 30.8607 22.1878 32.5318 22.1879 34.2725C22.1879 36.0133 21.5039 37.6851 20.2836 38.9268C20.2002 39.0115 20.1003 39.079 19.9907 39.125C19.8809 39.171 19.7629 39.1953 19.644 39.1953C19.525 39.1953 19.407 39.171 19.2973 39.125C19.1877 39.079 19.0887 39.0115 19.0053 38.9268C18.8369 38.7557 18.7416 38.5252 18.7416 38.2852C18.7417 38.0452 18.8369 37.8145 19.0053 37.6436L19.1674 37.4717C19.9532 36.5956 20.3881 35.4568 20.3832 34.2744V34.2725C20.3882 33.0899 19.9532 31.9504 19.1674 31.0742L19.0053 30.9023C18.8369 30.7314 18.7417 30.5007 18.7416 30.2607C18.7416 30.0207 18.8369 29.7902 19.0053 29.6191C19.0887 29.5344 19.1877 29.4669 19.2973 29.4209C19.407 29.3749 19.525 29.3506 19.644 29.3506Z" fill="white" stroke="white" stroke-width="0.483434"/>
<path d="M17.6799 31.0034C17.7989 31.0034 17.9169 31.0268 18.0266 31.0728C18.1363 31.1187 18.2361 31.1862 18.3196 31.271C19.1065 32.0719 19.5471 33.1502 19.5471 34.2729C19.5471 35.3255 19.1599 36.3391 18.4631 37.1216L18.3196 37.2749C18.2362 37.3597 18.1363 37.4272 18.0266 37.4731C17.9169 37.5191 17.7989 37.5425 17.6799 37.5425C17.561 37.5425 17.443 37.5191 17.3333 37.4731C17.2237 37.4272 17.1246 37.3596 17.0413 37.2749C16.8728 37.1038 16.7776 36.8734 16.7776 36.6333C16.7776 36.3934 16.872 36.1627 17.0403 35.9917C17.4909 35.533 17.7434 34.9159 17.7434 34.2729C17.7434 33.63 17.4909 33.0128 17.0403 32.5542V32.5532C16.8724 32.3823 16.7776 32.1522 16.7776 31.9126C16.7776 31.6726 16.8728 31.442 17.0413 31.271C17.1246 31.1864 17.2237 31.1187 17.3333 31.0728C17.443 31.0268 17.561 31.0034 17.6799 31.0034ZM29.1194 17.2368C30.9651 15.3825 33.4819 14.5975 35.6946 15.228C38.1235 15.9204 40.0912 17.9233 41.3088 20.8481L41.5422 21.4458L41.5432 21.4487C42.4797 24.114 42.8426 26.947 42.6077 29.7622C42.5912 29.9886 42.49 30.2005 42.3245 30.356C42.1581 30.5121 41.9393 30.5997 41.7112 30.6011H41.7092C41.6863 30.6011 41.6645 30.6003 41.6448 30.5991H41.6399C41.4005 30.5796 41.1784 30.4656 41.0227 30.2827C40.8671 30.0999 40.79 29.8629 40.8088 29.6235V29.6216C41.0239 27.0655 40.6964 24.4925 39.8479 22.0718V22.0708C38.8415 19.3254 37.1794 17.5413 35.2034 16.978C33.3425 16.4477 31.5046 17.4091 30.3938 18.5249C29.2917 19.7035 28.516 21.1493 28.1428 22.7192L28.1418 22.7222C28.1128 22.8375 28.0616 22.9462 27.9905 23.0415C27.9194 23.1368 27.83 23.2172 27.7278 23.2778C27.6254 23.3385 27.5116 23.3784 27.3938 23.395C27.2761 23.4116 27.1563 23.4045 27.0413 23.3745H27.0393C26.8075 23.3118 26.6099 23.1594 26.4895 22.9517C26.3691 22.744 26.3351 22.4974 26.3958 22.2651C26.8493 20.3825 27.787 18.6507 29.1155 17.2417L29.1194 17.2368Z" fill="white" stroke="white" stroke-width="0.483434"/>
<mask id="path-6-outside-1_2032_665" maskUnits="userSpaceOnUse" x="5.86749" y="5.80127" width="53" height="50" fill="black">
<rect fill="white" x="5.86749" y="5.80127" width="53" height="50"/>
<path d="M53.8037 53.7675H33.5804C34.2954 53.2034 34.9203 52.5328 35.4334 51.7792C36.4711 50.2907 37.0661 48.5817 37.5907 47.0736C37.8424 46.2886 38.1662 45.5287 38.558 44.8038C39.1049 43.8673 39.7019 42.9818 40.3342 42.0438C41.6065 40.1549 42.9222 38.2022 43.8475 35.7668C45.7834 30.6711 45.8664 24.4383 44.064 19.5C42.5557 15.368 39.8495 12.5555 36.4438 11.5809C33.2973 10.6803 29.8864 11.6878 27.3203 14.2754C24.9959 16.6193 23.5317 20.224 23.4019 23.9182C23.3946 24.099 23.4591 24.2753 23.5812 24.4084C23.7033 24.5414 23.8731 24.6204 24.0532 24.6279L24.0775 24.6282C24.2534 24.6272 24.4221 24.5578 24.548 24.4345C24.674 24.3113 24.7474 24.1438 24.7527 23.9673C24.8699 20.6121 26.1863 17.3526 28.2729 15.248C30.4883 13.0138 33.4059 12.1369 36.0769 12.9007C39.056 13.7533 41.4425 16.2662 42.7968 19.9765C44.4896 24.6149 44.409 30.4764 42.5864 35.2738C41.7178 37.5601 40.4476 39.4459 39.2179 41.2697C38.5737 42.2262 37.9644 43.1302 37.3957 44.1041C36.9578 44.9057 36.5965 45.7471 36.3167 46.617C35.8214 48.0407 35.2592 49.6544 34.3302 50.9876C32.9547 52.9609 31.2308 53.892 29.1804 53.7542C26.1115 53.5495 23.5378 49.9218 23.0603 45.1281C23.0526 45.0384 23.0273 44.9512 22.9857 44.8714C22.9441 44.7916 22.8871 44.721 22.818 44.6636C22.749 44.6061 22.6692 44.5631 22.5834 44.5369C22.4975 44.5107 22.4074 44.5019 22.3181 44.5111C22.2289 44.5202 22.1424 44.5471 22.0636 44.5902C21.9848 44.6332 21.9154 44.6916 21.8593 44.7618C21.8032 44.8321 21.7616 44.9128 21.7369 44.9994C21.7123 45.0859 21.705 45.1766 21.7156 45.266C22.0855 48.979 23.6379 52.0819 25.7651 53.7675H8.22521C8.12802 53.7548 8.02925 53.763 7.93548 53.7916C7.84171 53.8203 7.75511 53.8686 7.68145 53.9335C7.60779 53.9984 7.54878 54.0783 7.50835 54.168C7.46793 54.2576 7.44702 54.3548 7.44702 54.4532C7.44702 54.5515 7.46793 54.6488 7.50835 54.7384C7.54878 54.828 7.60779 54.9079 7.68145 54.9728C7.75511 55.0377 7.84171 55.0861 7.93548 55.1147C8.02925 55.1433 8.12802 55.1516 8.22521 55.1388H53.8033C53.9005 55.1516 53.9993 55.1433 54.0931 55.1147C54.1868 55.0861 54.2734 55.0377 54.3471 54.9728C54.4208 54.9079 54.4798 54.828 54.5202 54.7384C54.5606 54.6488 54.5815 54.5515 54.5815 54.4532C54.5815 54.3548 54.5606 54.2576 54.5202 54.168C54.4798 54.0783 54.4208 53.9984 54.3471 53.9335C54.2734 53.8686 54.1868 53.8203 54.0931 53.7916C53.9993 53.763 53.9009 53.7548 53.8037 53.7675ZM42.7982 10.2295C43.0009 10.2295 43.199 10.1691 43.3675 10.0561C43.536 9.94313 43.6673 9.78251 43.7449 9.59458C43.8224 9.40665 43.8427 9.19986 43.8032 9.00036C43.7636 8.80086 43.6661 8.61761 43.5228 8.47378C43.3794 8.32994 43.1969 8.23199 42.9981 8.19231C42.7993 8.15263 42.5933 8.17299 42.4061 8.25083C42.2188 8.32868 42.0588 8.4605 41.9462 8.62962C41.8336 8.79875 41.7735 8.9976 41.7735 9.20101C41.7738 9.47369 41.8818 9.73512 42.0739 9.92794C42.266 10.1207 42.5265 10.2292 42.7982 10.2295ZM42.7982 8.68678C42.8995 8.68678 42.9986 8.71694 43.0828 8.77344C43.1671 8.82994 43.2327 8.91026 43.2715 9.00422C43.3103 9.09818 43.3205 9.20158 43.3007 9.30133C43.2809 9.40108 43.2321 9.4927 43.1605 9.56462C43.0888 9.63654 42.9975 9.68551 42.8981 9.70535C42.7988 9.7252 42.6957 9.71501 42.6021 9.67609C42.5085 9.63717 42.4285 9.57126 42.3722 9.4867C42.3159 9.40213 42.2858 9.30271 42.2858 9.20101C42.2859 9.06465 42.3399 8.93391 42.436 8.83749C42.5321 8.74107 42.6623 8.68687 42.7982 8.68678ZM57.4283 22.571C57.2932 22.571 57.1612 22.6112 57.0488 22.6865C56.9365 22.7619 56.8489 22.8689 56.7972 22.9942C56.7455 23.1195 56.732 23.2574 56.7583 23.3904C56.7847 23.5234 56.8498 23.6455 56.9453 23.7414C57.0408 23.8373 57.1626 23.9026 57.2951 23.9291C57.4276 23.9555 57.5649 23.9419 57.6898 23.8901C57.8146 23.8382 57.9213 23.7503 57.9963 23.6375C58.0714 23.5248 58.1115 23.3922 58.1115 23.2566C58.1113 23.0748 58.0393 22.9005 57.9112 22.772C57.7831 22.6434 57.6095 22.5711 57.4283 22.571ZM57.4283 23.5994C57.3608 23.5994 57.2948 23.5793 57.2386 23.5416C57.1824 23.504 57.1386 23.4504 57.1128 23.3878C57.0869 23.3252 57.0802 23.2562 57.0933 23.1897C57.1065 23.1232 57.1391 23.0621 57.1868 23.0142C57.2346 22.9662 57.2955 22.9336 57.3617 22.9204C57.428 22.9071 57.4966 22.9139 57.5591 22.9399C57.6215 22.9658 57.6748 23.0098 57.7123 23.0661C57.7499 23.1225 57.7699 23.1888 57.7699 23.2566C57.7698 23.3475 57.7338 23.4346 57.6698 23.4989C57.6057 23.5632 57.5189 23.5993 57.4283 23.5994ZM16.545 20.7424C16.4099 20.7424 16.2778 20.7826 16.1655 20.8579C16.0531 20.9333 15.9656 21.0403 15.9139 21.1656C15.8622 21.2909 15.8486 21.4288 15.875 21.5618C15.9014 21.6948 15.9664 21.8169 16.0619 21.9128C16.1575 22.0087 16.2792 22.074 16.4117 22.1005C16.5442 22.1269 16.6816 22.1133 16.8064 22.0615C16.9312 22.0096 17.0379 21.9217 17.113 21.8089C17.1881 21.6962 17.2281 21.5636 17.2281 21.428C17.2279 21.2462 17.1559 21.0719 17.0278 20.9434C16.8998 20.8148 16.7261 20.7425 16.545 20.7424ZM16.545 21.7708C16.4774 21.7708 16.4114 21.7507 16.3552 21.713C16.2991 21.6754 16.2553 21.6218 16.2294 21.5592C16.2036 21.4966 16.1968 21.4276 16.21 21.3611C16.2232 21.2946 16.2557 21.2335 16.3035 21.1856C16.3512 21.1377 16.4121 21.105 16.4784 21.0918C16.5446 21.0785 16.6133 21.0853 16.6757 21.1113C16.7381 21.1372 16.7915 21.1812 16.829 21.2375C16.8665 21.2939 16.8866 21.3602 16.8866 21.428C16.8865 21.5189 16.8504 21.606 16.7864 21.6703C16.7224 21.7346 16.6356 21.7707 16.545 21.7708ZM56.3941 6.80127C56.259 6.80127 56.1269 6.84148 56.0146 6.91682C55.9022 6.99216 55.8147 7.09924 55.763 7.22453C55.7113 7.34981 55.6977 7.48767 55.7241 7.62067C55.7505 7.75367 55.8155 7.87584 55.9111 7.97173C56.0066 8.06762 56.1283 8.13292 56.2608 8.15937C56.3933 8.18583 56.5307 8.17225 56.6555 8.12036C56.7803 8.06846 56.887 7.98058 56.9621 7.86783C57.0372 7.75508 57.0772 7.62252 57.0772 7.48691C57.077 7.30512 57.005 7.13083 56.8769 7.00229C56.7489 6.87375 56.5752 6.80145 56.3941 6.80127ZM56.3941 7.82973C56.3265 7.82973 56.2605 7.80962 56.2043 7.77195C56.1482 7.73428 56.1044 7.68074 56.0785 7.6181C56.0527 7.55546 56.0459 7.48653 56.0591 7.42003C56.0723 7.35353 56.1048 7.29244 56.1526 7.2445C56.2003 7.19655 56.2612 7.1639 56.3275 7.15068C56.3937 7.13745 56.4624 7.14424 56.5248 7.17018C56.5872 7.19613 56.6406 7.24007 56.6781 7.29645C56.7156 7.35282 56.7357 7.41911 56.7357 7.48691C56.7356 7.5778 56.6996 7.66495 56.6355 7.72922C56.5715 7.79349 56.4846 7.82964 56.3941 7.82973ZM8.23374 9.54383C8.23374 9.40822 8.19368 9.27566 8.11862 9.1629C8.04355 9.05015 7.93686 8.96227 7.81204 8.91038C7.68721 8.85848 7.54986 8.84491 7.41735 8.87136C7.28483 8.89782 7.16311 8.96312 7.06758 9.05901C6.97204 9.15489 6.90698 9.27706 6.88062 9.41006C6.85426 9.54306 6.86779 9.68092 6.91949 9.80621C6.9712 9.93149 7.05875 10.0386 7.17109 10.1139C7.28343 10.1893 7.41551 10.2295 7.55062 10.2295C7.73174 10.2293 7.90539 10.157 8.03346 10.0284C8.16153 9.8999 8.23356 9.72561 8.23374 9.54383ZM7.20906 9.54383C7.20906 9.47602 7.22909 9.40974 7.26662 9.35336C7.30415 9.29699 7.3575 9.25305 7.41991 9.2271C7.48232 9.20115 7.551 9.19437 7.61725 9.20759C7.68351 9.22082 7.74437 9.25347 7.79214 9.30142C7.83991 9.34936 7.87244 9.41044 7.88562 9.47694C7.8988 9.54344 7.89203 9.61237 7.86618 9.67502C7.84033 9.73766 7.79655 9.7912 7.74038 9.82887C7.68421 9.86654 7.61817 9.88664 7.55062 9.88664C7.46006 9.88655 7.37323 9.85041 7.3092 9.78613C7.24516 9.72186 7.20915 9.63472 7.20906 9.54383Z"/>
</mask>
<path d="M53.8037 53.7675H33.5804C34.2954 53.2034 34.9203 52.5328 35.4334 51.7792C36.4711 50.2907 37.0661 48.5817 37.5907 47.0736C37.8424 46.2886 38.1662 45.5287 38.558 44.8038C39.1049 43.8673 39.7019 42.9818 40.3342 42.0438C41.6065 40.1549 42.9222 38.2022 43.8475 35.7668C45.7834 30.6711 45.8664 24.4383 44.064 19.5C42.5557 15.368 39.8495 12.5555 36.4438 11.5809C33.2973 10.6803 29.8864 11.6878 27.3203 14.2754C24.9959 16.6193 23.5317 20.224 23.4019 23.9182C23.3946 24.099 23.4591 24.2753 23.5812 24.4084C23.7033 24.5414 23.8731 24.6204 24.0532 24.6279L24.0775 24.6282C24.2534 24.6272 24.4221 24.5578 24.548 24.4345C24.674 24.3113 24.7474 24.1438 24.7527 23.9673C24.8699 20.6121 26.1863 17.3526 28.2729 15.248C30.4883 13.0138 33.4059 12.1369 36.0769 12.9007C39.056 13.7533 41.4425 16.2662 42.7968 19.9765C44.4896 24.6149 44.409 30.4764 42.5864 35.2738C41.7178 37.5601 40.4476 39.4459 39.2179 41.2697C38.5737 42.2262 37.9644 43.1302 37.3957 44.1041C36.9578 44.9057 36.5965 45.7471 36.3167 46.617C35.8214 48.0407 35.2592 49.6544 34.3302 50.9876C32.9547 52.9609 31.2308 53.892 29.1804 53.7542C26.1115 53.5495 23.5378 49.9218 23.0603 45.1281C23.0526 45.0384 23.0273 44.9512 22.9857 44.8714C22.9441 44.7916 22.8871 44.721 22.818 44.6636C22.749 44.6061 22.6692 44.5631 22.5834 44.5369C22.4975 44.5107 22.4074 44.5019 22.3181 44.5111C22.2289 44.5202 22.1424 44.5471 22.0636 44.5902C21.9848 44.6332 21.9154 44.6916 21.8593 44.7618C21.8032 44.8321 21.7616 44.9128 21.7369 44.9994C21.7123 45.0859 21.705 45.1766 21.7156 45.266C22.0855 48.979 23.6379 52.0819 25.7651 53.7675H8.22521C8.12802 53.7548 8.02925 53.763 7.93548 53.7916C7.84171 53.8203 7.75511 53.8686 7.68145 53.9335C7.60779 53.9984 7.54878 54.0783 7.50835 54.168C7.46793 54.2576 7.44702 54.3548 7.44702 54.4532C7.44702 54.5515 7.46793 54.6488 7.50835 54.7384C7.54878 54.828 7.60779 54.9079 7.68145 54.9728C7.75511 55.0377 7.84171 55.0861 7.93548 55.1147C8.02925 55.1433 8.12802 55.1516 8.22521 55.1388H53.8033C53.9005 55.1516 53.9993 55.1433 54.0931 55.1147C54.1868 55.0861 54.2734 55.0377 54.3471 54.9728C54.4208 54.9079 54.4798 54.828 54.5202 54.7384C54.5606 54.6488 54.5815 54.5515 54.5815 54.4532C54.5815 54.3548 54.5606 54.2576 54.5202 54.168C54.4798 54.0783 54.4208 53.9984 54.3471 53.9335C54.2734 53.8686 54.1868 53.8203 54.0931 53.7916C53.9993 53.763 53.9009 53.7548 53.8037 53.7675ZM42.7982 10.2295C43.0009 10.2295 43.199 10.1691 43.3675 10.0561C43.536 9.94313 43.6673 9.78251 43.7449 9.59458C43.8224 9.40665 43.8427 9.19986 43.8032 9.00036C43.7636 8.80086 43.6661 8.61761 43.5228 8.47378C43.3794 8.32994 43.1969 8.23199 42.9981 8.19231C42.7993 8.15263 42.5933 8.17299 42.4061 8.25083C42.2188 8.32868 42.0588 8.4605 41.9462 8.62962C41.8336 8.79875 41.7735 8.9976 41.7735 9.20101C41.7738 9.47369 41.8818 9.73512 42.0739 9.92794C42.266 10.1207 42.5265 10.2292 42.7982 10.2295ZM42.7982 8.68678C42.8995 8.68678 42.9986 8.71694 43.0828 8.77344C43.1671 8.82994 43.2327 8.91026 43.2715 9.00422C43.3103 9.09818 43.3205 9.20158 43.3007 9.30133C43.2809 9.40108 43.2321 9.4927 43.1605 9.56462C43.0888 9.63654 42.9975 9.68551 42.8981 9.70535C42.7988 9.7252 42.6957 9.71501 42.6021 9.67609C42.5085 9.63717 42.4285 9.57126 42.3722 9.4867C42.3159 9.40213 42.2858 9.30271 42.2858 9.20101C42.2859 9.06465 42.3399 8.93391 42.436 8.83749C42.5321 8.74107 42.6623 8.68687 42.7982 8.68678ZM57.4283 22.571C57.2932 22.571 57.1612 22.6112 57.0488 22.6865C56.9365 22.7619 56.8489 22.8689 56.7972 22.9942C56.7455 23.1195 56.732 23.2574 56.7583 23.3904C56.7847 23.5234 56.8498 23.6455 56.9453 23.7414C57.0408 23.8373 57.1626 23.9026 57.2951 23.9291C57.4276 23.9555 57.5649 23.9419 57.6898 23.8901C57.8146 23.8382 57.9213 23.7503 57.9963 23.6375C58.0714 23.5248 58.1115 23.3922 58.1115 23.2566C58.1113 23.0748 58.0393 22.9005 57.9112 22.772C57.7831 22.6434 57.6095 22.5711 57.4283 22.571ZM57.4283 23.5994C57.3608 23.5994 57.2948 23.5793 57.2386 23.5416C57.1824 23.504 57.1386 23.4504 57.1128 23.3878C57.0869 23.3252 57.0802 23.2562 57.0933 23.1897C57.1065 23.1232 57.1391 23.0621 57.1868 23.0142C57.2346 22.9662 57.2955 22.9336 57.3617 22.9204C57.428 22.9071 57.4966 22.9139 57.5591 22.9399C57.6215 22.9658 57.6748 23.0098 57.7123 23.0661C57.7499 23.1225 57.7699 23.1888 57.7699 23.2566C57.7698 23.3475 57.7338 23.4346 57.6698 23.4989C57.6057 23.5632 57.5189 23.5993 57.4283 23.5994ZM16.545 20.7424C16.4099 20.7424 16.2778 20.7826 16.1655 20.8579C16.0531 20.9333 15.9656 21.0403 15.9139 21.1656C15.8622 21.2909 15.8486 21.4288 15.875 21.5618C15.9014 21.6948 15.9664 21.8169 16.0619 21.9128C16.1575 22.0087 16.2792 22.074 16.4117 22.1005C16.5442 22.1269 16.6816 22.1133 16.8064 22.0615C16.9312 22.0096 17.0379 21.9217 17.113 21.8089C17.1881 21.6962 17.2281 21.5636 17.2281 21.428C17.2279 21.2462 17.1559 21.0719 17.0278 20.9434C16.8998 20.8148 16.7261 20.7425 16.545 20.7424ZM16.545 21.7708C16.4774 21.7708 16.4114 21.7507 16.3552 21.713C16.2991 21.6754 16.2553 21.6218 16.2294 21.5592C16.2036 21.4966 16.1968 21.4276 16.21 21.3611C16.2232 21.2946 16.2557 21.2335 16.3035 21.1856C16.3512 21.1377 16.4121 21.105 16.4784 21.0918C16.5446 21.0785 16.6133 21.0853 16.6757 21.1113C16.7381 21.1372 16.7915 21.1812 16.829 21.2375C16.8665 21.2939 16.8866 21.3602 16.8866 21.428C16.8865 21.5189 16.8504 21.606 16.7864 21.6703C16.7224 21.7346 16.6356 21.7707 16.545 21.7708ZM56.3941 6.80127C56.259 6.80127 56.1269 6.84148 56.0146 6.91682C55.9022 6.99216 55.8147 7.09924 55.763 7.22453C55.7113 7.34981 55.6977 7.48767 55.7241 7.62067C55.7505 7.75367 55.8155 7.87584 55.9111 7.97173C56.0066 8.06762 56.1283 8.13292 56.2608 8.15937C56.3933 8.18583 56.5307 8.17225 56.6555 8.12036C56.7803 8.06846 56.887 7.98058 56.9621 7.86783C57.0372 7.75508 57.0772 7.62252 57.0772 7.48691C57.077 7.30512 57.005 7.13083 56.8769 7.00229C56.7489 6.87375 56.5752 6.80145 56.3941 6.80127ZM56.3941 7.82973C56.3265 7.82973 56.2605 7.80962 56.2043 7.77195C56.1482 7.73428 56.1044 7.68074 56.0785 7.6181C56.0527 7.55546 56.0459 7.48653 56.0591 7.42003C56.0723 7.35353 56.1048 7.29244 56.1526 7.2445C56.2003 7.19655 56.2612 7.1639 56.3275 7.15068C56.3937 7.13745 56.4624 7.14424 56.5248 7.17018C56.5872 7.19613 56.6406 7.24007 56.6781 7.29645C56.7156 7.35282 56.7357 7.41911 56.7357 7.48691C56.7356 7.5778 56.6996 7.66495 56.6355 7.72922C56.5715 7.79349 56.4846 7.82964 56.3941 7.82973ZM8.23374 9.54383C8.23374 9.40822 8.19368 9.27566 8.11862 9.1629C8.04355 9.05015 7.93686 8.96227 7.81204 8.91038C7.68721 8.85848 7.54986 8.84491 7.41735 8.87136C7.28483 8.89782 7.16311 8.96312 7.06758 9.05901C6.97204 9.15489 6.90698 9.27706 6.88062 9.41006C6.85426 9.54306 6.86779 9.68092 6.91949 9.80621C6.9712 9.93149 7.05875 10.0386 7.17109 10.1139C7.28343 10.1893 7.41551 10.2295 7.55062 10.2295C7.73174 10.2293 7.90539 10.157 8.03346 10.0284C8.16153 9.8999 8.23356 9.72561 8.23374 9.54383ZM7.20906 9.54383C7.20906 9.47602 7.22909 9.40974 7.26662 9.35336C7.30415 9.29699 7.3575 9.25305 7.41991 9.2271C7.48232 9.20115 7.551 9.19437 7.61725 9.20759C7.68351 9.22082 7.74437 9.25347 7.79214 9.30142C7.83991 9.34936 7.87244 9.41044 7.88562 9.47694C7.8988 9.54344 7.89203 9.61237 7.86618 9.67502C7.84033 9.73766 7.79655 9.7912 7.74038 9.82887C7.68421 9.86654 7.61817 9.88664 7.55062 9.88664C7.46006 9.88655 7.37323 9.85041 7.3092 9.78613C7.24516 9.72186 7.20915 9.63472 7.20906 9.54383Z" fill="white"/>
<path d="M53.8037 53.7675H33.5804C34.2954 53.2034 34.9203 52.5328 35.4334 51.7792C36.4711 50.2907 37.0661 48.5817 37.5907 47.0736C37.8424 46.2886 38.1662 45.5287 38.558 44.8038C39.1049 43.8673 39.7019 42.9818 40.3342 42.0438C41.6065 40.1549 42.9222 38.2022 43.8475 35.7668C45.7834 30.6711 45.8664 24.4383 44.064 19.5C42.5557 15.368 39.8495 12.5555 36.4438 11.5809C33.2973 10.6803 29.8864 11.6878 27.3203 14.2754C24.9959 16.6193 23.5317 20.224 23.4019 23.9182C23.3946 24.099 23.4591 24.2753 23.5812 24.4084C23.7033 24.5414 23.8731 24.6204 24.0532 24.6279L24.0775 24.6282C24.2534 24.6272 24.4221 24.5578 24.548 24.4345C24.674 24.3113 24.7474 24.1438 24.7527 23.9673C24.8699 20.6121 26.1863 17.3526 28.2729 15.248C30.4883 13.0138 33.4059 12.1369 36.0769 12.9007C39.056 13.7533 41.4425 16.2662 42.7968 19.9765C44.4896 24.6149 44.409 30.4764 42.5864 35.2738C41.7178 37.5601 40.4476 39.4459 39.2179 41.2697C38.5737 42.2262 37.9644 43.1302 37.3957 44.1041C36.9578 44.9057 36.5965 45.7471 36.3167 46.617C35.8214 48.0407 35.2592 49.6544 34.3302 50.9876C32.9547 52.9609 31.2308 53.892 29.1804 53.7542C26.1115 53.5495 23.5378 49.9218 23.0603 45.1281C23.0526 45.0384 23.0273 44.9512 22.9857 44.8714C22.9441 44.7916 22.8871 44.721 22.818 44.6636C22.749 44.6061 22.6692 44.5631 22.5834 44.5369C22.4975 44.5107 22.4074 44.5019 22.3181 44.5111C22.2289 44.5202 22.1424 44.5471 22.0636 44.5902C21.9848 44.6332 21.9154 44.6916 21.8593 44.7618C21.8032 44.8321 21.7616 44.9128 21.7369 44.9994C21.7123 45.0859 21.705 45.1766 21.7156 45.266C22.0855 48.979 23.6379 52.0819 25.7651 53.7675H8.22521C8.12802 53.7548 8.02925 53.763 7.93548 53.7916C7.84171 53.8203 7.75511 53.8686 7.68145 53.9335C7.60779 53.9984 7.54878 54.0783 7.50835 54.168C7.46793 54.2576 7.44702 54.3548 7.44702 54.4532C7.44702 54.5515 7.46793 54.6488 7.50835 54.7384C7.54878 54.828 7.60779 54.9079 7.68145 54.9728C7.75511 55.0377 7.84171 55.0861 7.93548 55.1147C8.02925 55.1433 8.12802 55.1516 8.22521 55.1388H53.8033C53.9005 55.1516 53.9993 55.1433 54.0931 55.1147C54.1868 55.0861 54.2734 55.0377 54.3471 54.9728C54.4208 54.9079 54.4798 54.828 54.5202 54.7384C54.5606 54.6488 54.5815 54.5515 54.5815 54.4532C54.5815 54.3548 54.5606 54.2576 54.5202 54.168C54.4798 54.0783 54.4208 53.9984 54.3471 53.9335C54.2734 53.8686 54.1868 53.8203 54.0931 53.7916C53.9993 53.763 53.9009 53.7548 53.8037 53.7675ZM42.7982 10.2295C43.0009 10.2295 43.199 10.1691 43.3675 10.0561C43.536 9.94313 43.6673 9.78251 43.7449 9.59458C43.8224 9.40665 43.8427 9.19986 43.8032 9.00036C43.7636 8.80086 43.6661 8.61761 43.5228 8.47378C43.3794 8.32994 43.1969 8.23199 42.9981 8.19231C42.7993 8.15263 42.5933 8.17299 42.4061 8.25083C42.2188 8.32868 42.0588 8.4605 41.9462 8.62962C41.8336 8.79875 41.7735 8.9976 41.7735 9.20101C41.7738 9.47369 41.8818 9.73512 42.0739 9.92794C42.266 10.1207 42.5265 10.2292 42.7982 10.2295ZM42.7982 8.68678C42.8995 8.68678 42.9986 8.71694 43.0828 8.77344C43.1671 8.82994 43.2327 8.91026 43.2715 9.00422C43.3103 9.09818 43.3205 9.20158 43.3007 9.30133C43.2809 9.40108 43.2321 9.4927 43.1605 9.56462C43.0888 9.63654 42.9975 9.68551 42.8981 9.70535C42.7988 9.7252 42.6957 9.71501 42.6021 9.67609C42.5085 9.63717 42.4285 9.57126 42.3722 9.4867C42.3159 9.40213 42.2858 9.30271 42.2858 9.20101C42.2859 9.06465 42.3399 8.93391 42.436 8.83749C42.5321 8.74107 42.6623 8.68687 42.7982 8.68678ZM57.4283 22.571C57.2932 22.571 57.1612 22.6112 57.0488 22.6865C56.9365 22.7619 56.8489 22.8689 56.7972 22.9942C56.7455 23.1195 56.732 23.2574 56.7583 23.3904C56.7847 23.5234 56.8498 23.6455 56.9453 23.7414C57.0408 23.8373 57.1626 23.9026 57.2951 23.9291C57.4276 23.9555 57.5649 23.9419 57.6898 23.8901C57.8146 23.8382 57.9213 23.7503 57.9963 23.6375C58.0714 23.5248 58.1115 23.3922 58.1115 23.2566C58.1113 23.0748 58.0393 22.9005 57.9112 22.772C57.7831 22.6434 57.6095 22.5711 57.4283 22.571ZM57.4283 23.5994C57.3608 23.5994 57.2948 23.5793 57.2386 23.5416C57.1824 23.504 57.1386 23.4504 57.1128 23.3878C57.0869 23.3252 57.0802 23.2562 57.0933 23.1897C57.1065 23.1232 57.1391 23.0621 57.1868 23.0142C57.2346 22.9662 57.2955 22.9336 57.3617 22.9204C57.428 22.9071 57.4966 22.9139 57.5591 22.9399C57.6215 22.9658 57.6748 23.0098 57.7123 23.0661C57.7499 23.1225 57.7699 23.1888 57.7699 23.2566C57.7698 23.3475 57.7338 23.4346 57.6698 23.4989C57.6057 23.5632 57.5189 23.5993 57.4283 23.5994ZM16.545 20.7424C16.4099 20.7424 16.2778 20.7826 16.1655 20.8579C16.0531 20.9333 15.9656 21.0403 15.9139 21.1656C15.8622 21.2909 15.8486 21.4288 15.875 21.5618C15.9014 21.6948 15.9664 21.8169 16.0619 21.9128C16.1575 22.0087 16.2792 22.074 16.4117 22.1005C16.5442 22.1269 16.6816 22.1133 16.8064 22.0615C16.9312 22.0096 17.0379 21.9217 17.113 21.8089C17.1881 21.6962 17.2281 21.5636 17.2281 21.428C17.2279 21.2462 17.1559 21.0719 17.0278 20.9434C16.8998 20.8148 16.7261 20.7425 16.545 20.7424ZM16.545 21.7708C16.4774 21.7708 16.4114 21.7507 16.3552 21.713C16.2991 21.6754 16.2553 21.6218 16.2294 21.5592C16.2036 21.4966 16.1968 21.4276 16.21 21.3611C16.2232 21.2946 16.2557 21.2335 16.3035 21.1856C16.3512 21.1377 16.4121 21.105 16.4784 21.0918C16.5446 21.0785 16.6133 21.0853 16.6757 21.1113C16.7381 21.1372 16.7915 21.1812 16.829 21.2375C16.8665 21.2939 16.8866 21.3602 16.8866 21.428C16.8865 21.5189 16.8504 21.606 16.7864 21.6703C16.7224 21.7346 16.6356 21.7707 16.545 21.7708ZM56.3941 6.80127C56.259 6.80127 56.1269 6.84148 56.0146 6.91682C55.9022 6.99216 55.8147 7.09924 55.763 7.22453C55.7113 7.34981 55.6977 7.48767 55.7241 7.62067C55.7505 7.75367 55.8155 7.87584 55.9111 7.97173C56.0066 8.06762 56.1283 8.13292 56.2608 8.15937C56.3933 8.18583 56.5307 8.17225 56.6555 8.12036C56.7803 8.06846 56.887 7.98058 56.9621 7.86783C57.0372 7.75508 57.0772 7.62252 57.0772 7.48691C57.077 7.30512 57.005 7.13083 56.8769 7.00229C56.7489 6.87375 56.5752 6.80145 56.3941 6.80127ZM56.3941 7.82973C56.3265 7.82973 56.2605 7.80962 56.2043 7.77195C56.1482 7.73428 56.1044 7.68074 56.0785 7.6181C56.0527 7.55546 56.0459 7.48653 56.0591 7.42003C56.0723 7.35353 56.1048 7.29244 56.1526 7.2445C56.2003 7.19655 56.2612 7.1639 56.3275 7.15068C56.3937 7.13745 56.4624 7.14424 56.5248 7.17018C56.5872 7.19613 56.6406 7.24007 56.6781 7.29645C56.7156 7.35282 56.7357 7.41911 56.7357 7.48691C56.7356 7.5778 56.6996 7.66495 56.6355 7.72922C56.5715 7.79349 56.4846 7.82964 56.3941 7.82973ZM8.23374 9.54383C8.23374 9.40822 8.19368 9.27566 8.11862 9.1629C8.04355 9.05015 7.93686 8.96227 7.81204 8.91038C7.68721 8.85848 7.54986 8.84491 7.41735 8.87136C7.28483 8.89782 7.16311 8.96312 7.06758 9.05901C6.97204 9.15489 6.90698 9.27706 6.88062 9.41006C6.85426 9.54306 6.86779 9.68092 6.91949 9.80621C6.9712 9.93149 7.05875 10.0386 7.17109 10.1139C7.28343 10.1893 7.41551 10.2295 7.55062 10.2295C7.73174 10.2293 7.90539 10.157 8.03346 10.0284C8.16153 9.8999 8.23356 9.72561 8.23374 9.54383ZM7.20906 9.54383C7.20906 9.47602 7.22909 9.40974 7.26662 9.35336C7.30415 9.29699 7.3575 9.25305 7.41991 9.2271C7.48232 9.20115 7.551 9.19437 7.61725 9.20759C7.68351 9.22082 7.74437 9.25347 7.79214 9.30142C7.83991 9.34936 7.87244 9.41044 7.88562 9.47694C7.8988 9.54344 7.89203 9.61237 7.86618 9.67502C7.84033 9.73766 7.79655 9.7912 7.74038 9.82887C7.68421 9.86654 7.61817 9.88664 7.55062 9.88664C7.46006 9.88655 7.37323 9.85041 7.3092 9.78613C7.24516 9.72186 7.20915 9.63472 7.20906 9.54383Z" stroke="white" stroke-width="0.966867" mask="url(#path-6-outside-1_2032_665)"/>
<defs>
<linearGradient id="paint0_linear_2032_665" x1="31.4232" y1="0" x2="31.4232" y2="62.8464" gradientUnits="userSpaceOnUse">
<stop stop-color="#02116E"/>
<stop offset="1" stop-color="#1F3A93"/>
</linearGradient>
</defs>
</svg>