<svg width="63" height="64" viewBox="0 0 63 64" fill="none" xmlns="http://www.w3.org/2000/svg">
<circle cx="31.4232" cy="31.4232" r="31.4232" fill="url(#paint0_linear_2032_679)"/>
<path d="M51.5418 38.9103L45.6769 24.7139C45.4317 24.1201 45.7311 23.4415 46.3353 23.2227L54.725 20.183C55.4682 19.9137 56.2506 20.4725 56.2371 21.2629L55.956 37.6319C55.9481 38.0908 55.6629 38.4992 55.2348 38.6647L52.9909 39.5318C52.4192 39.7527 51.7758 39.4768 51.5418 38.9103ZM12.9676 38.9103L18.8324 24.7139C19.0777 24.1201 18.7782 23.4415 18.1741 23.2227L9.78436 20.183C9.04117 19.9137 8.25869 20.4725 8.27227 21.2629L8.55339 37.6319C8.56127 38.0908 8.84647 38.4992 9.27461 38.6647L11.5184 39.5318C12.0901 39.7527 12.7336 39.4768 12.9676 38.9103Z" stroke="white" stroke-width="2.57831"/>
<path d="M45.1135 26.2373C42.9571 27.0075 40.6264 26.6593 38.7189 26.1238C36.1698 25.4082 33.6673 25.5566 31.3488 26.8352M31.3488 26.8352L27.9912 28.6868C26.4634 29.5293 25.908 31.4507 26.7505 32.9784C27.5243 34.3817 29.2264 34.9832 30.7102 34.3777L34.5617 32.806C35.954 32.2378 37.5507 32.5501 38.6264 33.6009L46.1247 40.9258C46.9934 41.7946 46.9934 43.2032 46.1247 44.072C45.2559 44.9407 43.8473 44.9407 42.9785 44.072M31.3488 26.8352C31.0429 26.2101 28.1078 24.886 25.537 26.2369C23.4804 27.3177 20.1938 26.6872 18.8076 26.2369M50.3135 39.0843L46.643 40.9196M14.2195 38.1667L17.2784 40.3078L30.8446 51.4914L32.6629 52.6295C33.6647 53.1834 34.9403 53.4983 35.809 52.6295C36.6778 51.7608 36.6778 50.3522 35.809 49.4834M35.809 49.4834C36.6778 50.3522 38.8306 51.0517 39.6994 50.1829C40.5682 49.3142 40.5682 47.9056 39.6994 47.0368M35.809 49.4834L32.8782 47.2949M35.9849 38.1188L42.9785 44.072M42.9785 44.072C43.8473 44.9407 44.1469 46.6006 43.2781 47.4694C42.4094 48.3382 40.5682 47.9056 39.6994 47.0368M39.6994 47.0368L34.4553 42.9207" stroke="white" stroke-width="2.57831" stroke-linecap="round"/>
<defs>
<linearGradient id="paint0_linear_2032_679" x1="31.4232" y1="0" x2="31.4232" y2="62.8464" gradientUnits="userSpaceOnUse">
<stop stop-color="#02116E"/>
<stop offset="1" stop-color="#1F3A93"/>
</linearGradient>
</defs>
</svg>
